<?xml version="1.0" encoding="UTF-8"?>
<svg width="128pt" height="128pt" version="1.1" viewBox="0 0 128 128" xmlns="http://www.w3.org/2000/svg">
 <path d="m42.875 19.227h-1.0312s-0.82422 4.5391-3.918 7.7031l-0.53516 0.62109 1.2891 0.85938 4.9531-9.1797z"/>
 <path d="m39.352 29.492h-1.9609c-0.41406 0.41406-0.41406 2.6289-0.30859 3.1445 0.92969-0.10547 1.8555 0.46484 2.4102 0.67188 1.3281 1.4453 1.457 1.0312 2.0234-1.9102 0.56641-2.9375-2.1641-1.9062-2.1641-1.9062zm-1.9727 2.6289c-0.10938 0-0.19141-0.49219-0.19141-1.0938 0-0.60547 0.085938-1.0938 0.19141-1.0938 0.10547 0 0.19141 0.49219 0.19141 1.0938 0 0.60547-0.085937 1.0938-0.19141 1.0938z"/>
 <path d="m42.051 39.602-0.45703 1.1523h-3.4648v-1.6172h3.9219z"/>
 <path transform="scale(1.28)" d="m32.495 31.839v0.8606h-2.7069v-1.1017h2.7069z" fill="none" stroke="#000" stroke-miterlimit="10" stroke-width=".3224"/>
 <path d="m38.543 44.676s1.2539-0.72266 3.0508-0.17188v2.2031s-2.0195 1.168-3.2578-0.17188c-1.2383-1.3398 0-1.8555 0-1.8555"/>
 <path d="m37.988 49.523s1.4453-0.10547 2.2734 0.72266h1.332v2.2344h-1.332s-0.76172 1.168-2.2734 0.85938z"/>
 <path transform="scale(1.28)" d="m42.148 67.679h-12.521v-39.868s0.21362-17.303 16.98-18.808c1.181-0.10681 16.98 1.7212 17.41 18.375v40.302h-11.27" fill="none" stroke="#000" stroke-miterlimit="10" stroke-width="1.2896"/>
 <path transform="scale(1.28)" d="m36.771 12.665s11.093 1.1902 19.974 0" fill="none" stroke="#000" stroke-miterlimit="10" stroke-width="1.2896"/>
 <path d="m53.949 16.711 3.2734-4.8672h5.7344l4.3477 4.8672z"/>
 <path d="m55.254 23.973h4.6758l-0.082032 2.4062s-4.457 0.13672-4.5938 0c-0.13672-0.13672-0.34375-1.7891 0-2.4062z"/>
 <path d="m55.598 27.273h9.2852v6.7422h-9.2852z"/>
 <path d="m70.59 27.273h6.6055s1.9961 3.9883 1.0977 7.3594h-7.2891z"/>
 <path d="m65.16 25.207h3.8516v1.7227h-3.8516z"/>
 <path d="m65.57 27.551h3.4375v7.082h-3.4375z"/>
 <path d="m50.922 27.273h4.1445v7.3594h-4.1445z"/>
 <path d="m47.066 27.273h3.1016v7.3594h-3.1016z"/>
 <path d="m43.633 27.273h2.6836v7.3594h-2.6836z"/>
 <path d="m70.801 14.07c0.10156-0.51562 0.20703-1.4453 0.20703-1.4453s-0.3125-2.168-2.9219-1.4453c-0.21094 0.24219-0.79688 1.582-0.79688 1.582s-1.6836 0.28125-1.7188 1.5156c0 0 2.1641 3.5938 5.6055 1.9336 0.17578-0.35547 0.38281-1.043-0.375-2.1406zm-1.5742-1.668c-0.69922-0.21875-1.1914-0.64453-1.0938-0.95703 0.097657-0.30859 0.74219-0.38281 1.4453-0.16406s1.1914 0.64844 1.0938 0.95703c-0.09375 0.3125-0.74219 0.38672-1.4453 0.16406z"/>
 <path d="m81.105 28.539s1.1602 0.4375 1.418 0.92969h1.9102s0.87891 1.2617 0.15625 3.0703c-0.17969 0.12891-1.3945 0.027344-1.3945 0.027344s-0.72266 1.2891-1.3672 1.2891"/>
 <path d="m37.988 39.602h43.777c0.24219 0 0-1.2891 0-1.2891h-43.777z"/>
 <path transform="scale(1.28)" d="m41.22 69.788v1.7334h-1.0895l-1.1963-3.4912 2.6428 0.048828 0.042725-0.39673h-10.681l3.5461 4.7821h6.7291zm-6.5277 1.7334-2.3376-3.3051h2.1362l2.0538 3.3051zm2.7405 0-1.6113-3.3051h2.0538l1.4923 3.3051z" stroke="#000" stroke-miterlimit="10" stroke-width="1.2896"/>
 <path transform="scale(1.28)" d="m39.783 48.712v-11.365s2.002-6.4087 7.6843-6.4087 7.4677 5.4413 7.6843 6.5277v10.8l-3.6926 2.8198-0.079345 13.983h-7.9803l-0.039673-13.824z" fill="none" stroke="#000" stroke-miterlimit="10" stroke-width="1.2896"/>
 <path transform="scale(1.28)" d="m43.396 65.073h-1.2482v4.715h-0.92773v8.1818h11.526v-12.897z" fill="none" stroke="#000" stroke-miterlimit="10" stroke-width="1.2896"/>
 <path transform="scale(1.28)" d="m41.22 77.969-7.0923 9.6741 0.48218 2.6184h25.15l0.52185-2.4994-6.366-9.7931z" fill="none" stroke="#000" stroke-miterlimit="10" stroke-width="1.2896"/>
 <path d="m77.16 112.34-33.477-0.15234 0.61719 3.3516h32.191z"/>
 <path d="m49.785 105.85-2.6797 3.7852h4.4023l1.0625-3.7852z"/>
 <path d="m68.188 105.85h3.1641l2.4062 3.7852h-4.6094z"/>
 <path d="m57.801 104.03h5.125v5.6055h-5.125z"/>
 <path d="m37.922 35.598h44.02v1.6328h-44.02z"/>
 <path transform="scale(1.28)" d="m52.747 67.679h10.385l-3.5217 4.7821h-6.8634" fill="none" stroke="#000" stroke-miterlimit="10" stroke-width="1.2896"/>
 <path transform="scale(1.28)" d="m56.253 67.679-1.8341 4.7821h1.1871l2.3315-4.7821z" stroke="#010202" stroke-miterlimit="10" stroke-width="1.2896"/>
 <path transform="scale(1.28)" d="m52.921 72.461h0.14648v-3.2715z" stroke="#010202" stroke-miterlimit="10" stroke-width="1.2896"/>
 <path transform="scale(1.28)" d="m60.403 67.679-2.6215 4.7821h1.828l3.1433-4.7821z" stroke="#010202" stroke-miterlimit="10" stroke-width="1.2896"/>
 <path d="m78.398 79.168h3.1992v7.1719h-3.1992z"/>
 <path d="m74.582 76.277h1.0312s0.050781 6.3438 0 6.293c-0.050781-0.050781-1.0312 0-1.0312 0z"/>
 <path d="m72.855 76.277h0.74609v6.293h-0.74609z"/>
 <path d="m71.281 76.277h0.62891v6.293h-0.62891z"/>
 <path d="m69.656 76.277h0.9375v6.293h-0.9375z"/>
 <path d="m68.109 76.277h0.85156v6.293h-0.85156z"/>
 <path d="m68.805 49.387v1.168h0.24219v1.3086l-0.44531 0.035157 0.035157 0.61719h0.41406v2.1328h-0.30859l-0.035157 2.0977h0.34375v2.6133c-0.85938 2.3398-1.4102 0-1.4102 0l-0.003906-1.9258v-0.72266h0.27344v-2.1328h-0.27344v-2.0977h0.27344v-0.62109l-0.27344 0.003906v-1.2383h0.27344v-1.2383h-0.96094v11.797h2.5781v-11.797z"/>
 <path d="m51.574 49.387h3.1992v3.2148h-3.1992z"/>
 <path d="m51.574 53.891h3.1992v3.3555h-3.1992z"/>
 <path d="m60.551 45.188c-2.3945 0-4.332 1.9414-4.332 4.332s1.9414 4.332 4.332 4.332 4.332-1.9414 4.332-4.332c0-2.3945-1.9375-4.332-4.332-4.332zm0 6.2695c-1.0703 0-1.9375-0.86719-1.9375-1.9375 0-1.0703 0.86719-1.9375 1.9375-1.9375 1.0703 0 1.9375 0.86719 1.9375 1.9375 0 1.0703-0.86719 1.9375-1.9375 1.9375z"/>
 <path d="m58.641 61.18h3.7656v5.4531h-3.7656z"/>
 <path d="m59.75 66.633h1.8828v1.3398h-1.8828z"/>
 <path d="m59.75 67.973h-0.51562v1.2656h2.7617v-1.2656z"/>
 <path d="m59.75 69.238h1.8828v0.77344h-1.8828z"/>
 <path d="m59.84 70.012h-0.33203v2.0898h2.3711v-2.0898z"/>
 <path d="m59.934 72.102h1.7031v1.3672h-1.7031z"/>
 <path d="m59.934 73.469h-0.42578v9.1016h2.3711v-9.1016z"/>
</svg>
